<?xml version="1.0" encoding="UTF-8"?>
<svg id="Layer_2" xmlns="http://www.w3.org/2000/svg" version="1.1" viewBox="0 0 628.37 129.29">
  <!-- Generator: Adobe Illustrator 29.7.1, SVG Export Plug-In . SVG Version: 2.1.1 Build 8)  -->
  <defs>
    <style>
      .st0 {
        fill: none;
      }
    </style>
  </defs>
  <path d="M158.58,37.55c-15.4,0-27.89,12.26-27.89,27.39s12.49,27.39,27.89,27.39,27.88-12.26,27.88-27.39-12.48-27.39-27.88-27.39ZM158.58,82.16c-9.11,0-16.49-7.71-16.49-17.22s7.38-17.22,16.49-17.22,16.48,7.71,16.48,17.22-7.38,17.22-16.48,17.22Z"/>
  <path d="M113.96,72.69c-2.68,5.63-8.17,9.48-14.52,9.48-8.99,0-16.27-7.71-16.27-17.23s7.28-17.22,16.27-17.22c6.07,0,11.36,3.52,14.14,8.74h12.01c-3.58-10.98-13.93-18.91-26.15-18.91-15.19,0-27.51,12.26-27.51,27.39s12.32,27.4,27.51,27.4c12.49,0,23.03-8.29,26.37-19.65h-11.85Z"/>
  <path d="M216.16,39.54h-21.94v51.18h21.94c7.07,0,13.47-2.86,18.1-7.49s7.49-11.03,7.49-18.1c0-14.13-11.45-25.59-25.59-25.59ZM226.48,76.05c-2.75,3.04-6.42,4.71-10.32,4.71h-10.94v-32.22h10.94c8.04,0,14.59,7.23,14.59,16.11,0,4.31-1.52,8.36-4.27,11.4Z"/>
  <polygon points="260.58 48.54 260.58 60.22 284.93 60.22 284.93 68.96 260.58 68.96 260.58 81.19 287.37 81.19 287.37 90.72 249.28 90.72 249.28 39.01 287.37 39.01 287.37 48.54 260.58 48.54"/>
  <polygon points="310.79 39.86 302.05 39.86 302.05 91.65 313.08 91.65 313.08 63.68 325.43 82.57 331.96 82.57 344.23 63.77 344.23 91.65 355.26 91.65 355.26 39.86 347.32 39.86 328.65 68.62 310.79 39.86"/>
  <path d="M382.69,36.78c-10.72,0-19.41,8.44-19.41,18.85s8.69,18.85,19.41,18.85,19.42-8.44,19.42-18.85-8.69-18.85-19.42-18.85ZM382.69,67.25c-5.97,0-10.82-5.2-10.82-11.62s4.85-11.62,10.82-11.62,10.83,5.2,10.83,11.62-4.85,11.62-10.83,11.62Z"/>
  <path d="M382.69,79.49c-8.3,0-15.38,5.06-18.15,12.17h9.3c1.96-2.99,5.19-4.94,8.85-4.94s6.9,1.95,8.86,4.94h9.3c-2.77-7.11-9.86-12.17-18.16-12.17Z"/>
  <line class="st0" x1="373.84" y1="91.66" x2="364.54" y2="91.66"/>
  <line class="st0" x1="400.85" y1="91.66" x2="391.55" y2="91.66"/>
  <path d="M445.12,73.5s9-5.5,9-15.82-8.76-16.99-17.4-16.99h-23.56v50.97h10.95v-16.12h9.89l9.24,16.12h13.82l-11.94-18.16ZM443.12,57.66c0,4.42-3.58,8-8,8h-11.01v-16.01h11.91v.05c4,.45,7.1,3.83,7.1,7.95h0Z"/>
  <path d="M485.83,40.69h-22.71v50.97h10.83v-14.28h11.88c5.07,0,9.66-2.05,12.98-5.37s5.37-7.9,5.37-12.97c0-10.14-8.21-18.35-18.35-18.35ZM490.49,65.02c-1.53,1.53-3.65,2.48-5.99,2.48h-10.55v-16.94h10.55c4.68,0,8.47,3.79,8.47,8.47,0,2.34-.95,4.46-2.48,5.99Z"/>
  <polygon points="556.59 40.69 556.59 91.66 545.53 91.66 545.53 70.74 522.12 70.74 522.12 91.66 511.06 91.66 511.06 40.69 522.12 40.69 522.12 60.62 545.53 60.62 545.53 40.69 556.59 40.69"/>
</svg>